<?xml version="1.0" encoding="utf-8"?>
<!-- Generator: Adobe Illustrator 18.0.0, SVG Export Plug-In . SVG Version: 6.00 Build 0)  -->
<!DOCTYPE svg PUBLIC "-//W3C//DTD SVG 1.1//EN" "http://www.w3.org/Graphics/SVG/1.1/DTD/svg11.dtd">
<svg version="1.1" id="Layer_1" xmlns="http://www.w3.org/2000/svg" xmlns:xlink="http://www.w3.org/1999/xlink" x="0px" y="0px"
	 viewBox="-7.2 0 100 100" enable-background="new -7.2 0 100 100" xml:space="preserve">
<path fill="#FFFFFF" d="M83.5,90.8h-7.7l0-2.2h7.7c1.2,0,2.1-1,2.1-2.1c0-1.2-1-2.1-2.1-2.1h-7.7V79h-0.6c-4.5,0-7.8,0.7-10.2,2.1
	c-1.9,1.1-3.3,2.7-4.3,5H33c-2.6,0-4-0.6-4.6-1c-0.5-0.4-0.8-0.8-0.8-1.3c0-1.3,1.7-3.2,5.4-3.2h14.9l0.6,0v0c3.6-0.1,6.6-1,8.8-2.6
	c2.4-1.7,3.8-4.1,3.8-6.7c0-5-5.1-10.2-13.6-10.2c-6,0-9.9-2.8-10.4-4.9c0-0.1-3.1-13.4,4.9-22.8c0.8,0.2,2.9,0.5,5.4,0.5
	c3.8,0,8.8-0.8,11.5-4.6c2.3-3.3,2.7-5.5,3-7.9c0.4-2.4,0.8-4.9,3.4-8.8C70.3,5.1,76.8,2.5,76.9,2.4l1.7-0.7l-1.8-0.4
	C76.7,1.3,71.3,0,64.2,0c-9.5,0-22.4,2.3-29.8,13.3c-2.6,3.9-3.2,7.8-1.8,11.5c1,2.6,2.8,4.4,3.8,5.3c-0.6,1.1-2.2,4-3.3,6.2
	l-0.8-0.7c0.2-1.4,0.9-6.9-2.8-11.5c-3.3-4.2-9.2-6.3-17.5-6.3c-3.1,0-6.5,0.3-10.3,0.9L0,18.9l1.6,0.8c0.1,0,8.5,4.5,10.1,8.2
	l0.1,0.2c1.7,4.1,2.8,6.8,8,9.4c1.9,1,4,1.5,6.2,1.5c1.9,0,3.3-0.4,3.6-0.5c0.4,0,1.3,0.1,1.7,0.6c0.1,0.1,0.2,0.3,0.2,0.7
	c-0.2,1.2-0.5,2.4-0.9,3.8c-0.9,2.9-2,6.6-1.6,12.7c0,2.9,2,5.8,5.3,8c3.5,2.4,8.2,3.6,13.2,3.6c3.7,0,5.4,1.9,5.4,3.2
	c0,0.5-0.3,1-0.8,1.3c-0.7,0.5-2,1-4.6,1H33c-8.5,0-13.6,5.2-13.6,10.2c0,2.6,1.3,5,3.8,6.7c2.4,1.7,5.8,2.6,9.9,2.6h27.8
	c1,2.2,2.3,3.8,4.3,4.9c2.4,1.4,5.7,2,10.2,2h0.6v-4.9h7.7c1.2,0,2.1-1,2.1-2.1S84.7,90.8,83.5,90.8z M42.4,18.4
	C45.8,9.3,55.8,5.2,64,3.9c-8.2,1.3-16.8,6.2-20.1,15.3C43,21.3,41.4,21.4,42.4,18.4z M25.4,30.4c-2.8-3.2-7.8-8.2-12.9-9
	c5.7,0.9,11.2,4.4,13.9,8.6C27.3,31.5,26,31.6,25.4,30.4z"/>
</svg>
